<mxfile host="app.diagrams.net" agent="Mozilla/5.0 (Macintosh; Intel Mac OS X 10_15_7) AppleWebKit/537.36 (KHTML, like Gecko) Chrome/134.0.0.0 Safari/537.36" version="26.0.10">
  <diagram name="Page-1" id="74b105a0-9070-1c63-61bc-23e55f88626e">
    <mxGraphModel grid="1" page="1" gridSize="10" guides="1" tooltips="1" connect="1" arrows="1" fold="1" pageScale="1.5" pageWidth="1169" pageHeight="826" background="none" math="0" shadow="0">
      <root>
        <mxCell id="0" style=";html=1;" />
        <mxCell id="1" style=";html=1;" parent="0" />
        <mxCell id="10b056a9c633e61c-17" style="edgeStyle=orthogonalEdgeStyle;rounded=0;html=1;endArrow=block;endFill=1;jettySize=auto;orthogonalLoop=1;strokeWidth=2;startArrow=none;startFill=0;" edge="1" parent="1">
          <mxGeometry relative="1" as="geometry">
            <mxPoint x="560" y="564.5" as="sourcePoint" />
            <mxPoint x="620" y="564.5" as="targetPoint" />
          </mxGeometry>
        </mxCell>
        <mxCell id="10b056a9c633e61c-30" value="Wama Microservices Rental Project" style="text;strokeColor=none;fillColor=none;html=1;fontSize=24;fontStyle=1;verticalAlign=middle;align=center;" vertex="1" parent="1">
          <mxGeometry x="80" y="40" width="1590" height="40" as="geometry" />
        </mxCell>
        <mxCell id="gEUW47SurgXgiEZyULdi-1" value="NextJs Frontend service" style="rounded=0;whiteSpace=wrap;html=1;" vertex="1" parent="1">
          <mxGeometry x="420" y="535" width="140" height="60" as="geometry" />
        </mxCell>
        <mxCell id="gEUW47SurgXgiEZyULdi-93" value="" style="edgeStyle=orthogonalEdgeStyle;rounded=0;orthogonalLoop=1;jettySize=auto;html=1;" edge="1" parent="1" source="gEUW47SurgXgiEZyULdi-10" target="gEUW47SurgXgiEZyULdi-16">
          <mxGeometry relative="1" as="geometry" />
        </mxCell>
        <mxCell id="gEUW47SurgXgiEZyULdi-10" value="user/auth service&lt;br&gt;/login&lt;br&gt;/register" style="rounded=0;whiteSpace=wrap;html=1;" vertex="1" parent="1">
          <mxGeometry x="923" y="130" width="177" height="80" as="geometry" />
        </mxCell>
        <mxCell id="gEUW47SurgXgiEZyULdi-13" value="" style="shape=waypoint;sketch=0;size=6;pointerEvents=1;points=[];fillColor=default;resizable=0;rotatable=0;perimeter=centerPerimeter;snapToPoint=1;rounded=0;" vertex="1" parent="1">
          <mxGeometry x="987" y="930" width="20" height="20" as="geometry" />
        </mxCell>
        <mxCell id="gEUW47SurgXgiEZyULdi-92" value="" style="edgeStyle=orthogonalEdgeStyle;rounded=0;orthogonalLoop=1;jettySize=auto;html=1;" edge="1" parent="1" source="gEUW47SurgXgiEZyULdi-16" target="gEUW47SurgXgiEZyULdi-10">
          <mxGeometry relative="1" as="geometry" />
        </mxCell>
        <mxCell id="gEUW47SurgXgiEZyULdi-16" value="user database" style="shape=cylinder3;whiteSpace=wrap;html=1;boundedLbl=1;backgroundOutline=1;size=15;fillColor=light-dark(#009900,var(--ge-dark-color, #121212));" vertex="1" parent="1">
          <mxGeometry x="980" y="250" width="63" height="80" as="geometry" />
        </mxCell>
        <mxCell id="gEUW47SurgXgiEZyULdi-24" style="edgeStyle=orthogonalEdgeStyle;rounded=0;html=1;endArrow=block;endFill=1;jettySize=auto;orthogonalLoop=1;strokeWidth=2;startArrow=none;startFill=0;entryX=0;entryY=0.5;entryDx=0;entryDy=0;" edge="1" parent="1" target="gEUW47SurgXgiEZyULdi-111">
          <mxGeometry relative="1" as="geometry">
            <Array as="points">
              <mxPoint x="840" y="790" />
              <mxPoint x="840" y="1050" />
            </Array>
            <mxPoint x="840" y="560" as="sourcePoint" />
            <mxPoint x="912" y="1055" as="targetPoint" />
          </mxGeometry>
        </mxCell>
        <mxCell id="gEUW47SurgXgiEZyULdi-142" value="/payments" style="edgeLabel;html=1;align=center;verticalAlign=middle;resizable=0;points=[];" connectable="0" vertex="1" parent="gEUW47SurgXgiEZyULdi-24">
          <mxGeometry x="0.829" relative="1" as="geometry">
            <mxPoint as="offset" />
          </mxGeometry>
        </mxCell>
        <mxCell id="gEUW47SurgXgiEZyULdi-28" value="" style="shape=waypoint;sketch=0;size=6;pointerEvents=1;points=[];fillColor=default;resizable=0;rotatable=0;perimeter=centerPerimeter;snapToPoint=1;rounded=0;" vertex="1" parent="1">
          <mxGeometry x="986" y="1160" width="20" height="20" as="geometry" />
        </mxCell>
        <mxCell id="gEUW47SurgXgiEZyULdi-128" value="" style="edgeStyle=orthogonalEdgeStyle;rounded=0;orthogonalLoop=1;jettySize=auto;html=1;" edge="1" parent="1" source="gEUW47SurgXgiEZyULdi-59">
          <mxGeometry relative="1" as="geometry">
            <mxPoint x="1210" y="1190" as="targetPoint" />
            <Array as="points">
              <mxPoint x="1300" y="1180" />
              <mxPoint x="1210" y="1180" />
            </Array>
          </mxGeometry>
        </mxCell>
        <mxCell id="gEUW47SurgXgiEZyULdi-139" value="" style="edgeStyle=orthogonalEdgeStyle;rounded=0;orthogonalLoop=1;jettySize=auto;html=1;entryX=1.048;entryY=0.588;entryDx=0;entryDy=0;entryPerimeter=0;" edge="1" parent="1">
          <mxGeometry relative="1" as="geometry">
            <mxPoint x="1279.98" y="613" as="sourcePoint" />
            <mxPoint x="1043.004" y="610.04" as="targetPoint" />
            <Array as="points">
              <mxPoint x="1289.98" y="613" />
              <mxPoint x="1289.98" y="610" />
            </Array>
          </mxGeometry>
        </mxCell>
        <mxCell id="gEUW47SurgXgiEZyULdi-59" value="" style="strokeWidth=1;outlineConnect=0;dashed=0;align=center;html=1;fontSize=8;shape=mxgraph.eip.messageChannel;verticalLabelPosition=bottom;labelBackgroundColor=#ffffff;verticalAlign=top;direction=south;fillColor=#a0522d;fontColor=#ffffff;strokeColor=#6D1F00;" vertex="1" parent="1">
          <mxGeometry x="1280" y="470" width="40" height="620" as="geometry" />
        </mxCell>
        <mxCell id="gEUW47SurgXgiEZyULdi-81" value="" style="html=1;strokeWidth=2;outlineConnect=0;dashed=0;align=center;fontSize=8;fillColor=#c0f5a9;verticalLabelPosition=bottom;verticalAlign=top;shape=mxgraph.eip.recipient_list;" vertex="1" parent="1">
          <mxGeometry x="620" y="520" width="150" height="90" as="geometry" />
        </mxCell>
        <mxCell id="gEUW47SurgXgiEZyULdi-98" value="Actor" style="shape=umlActor;verticalLabelPosition=bottom;verticalAlign=top;html=1;outlineConnect=0;" vertex="1" parent="1">
          <mxGeometry x="380" y="535" width="30" height="60" as="geometry" />
        </mxCell>
        <mxCell id="gEUW47SurgXgiEZyULdi-105" value="" style="edgeStyle=orthogonalEdgeStyle;rounded=0;orthogonalLoop=1;jettySize=auto;html=1;" edge="1" parent="1" source="gEUW47SurgXgiEZyULdi-99" target="gEUW47SurgXgiEZyULdi-104">
          <mxGeometry relative="1" as="geometry">
            <Array as="points">
              <mxPoint x="1011" y="580" />
              <mxPoint x="1011" y="580" />
            </Array>
          </mxGeometry>
        </mxCell>
        <mxCell id="gEUW47SurgXgiEZyULdi-99" value="house database" style="shape=cylinder3;whiteSpace=wrap;html=1;boundedLbl=1;backgroundOutline=1;size=15;fillColor=light-dark(#009900,var(--ge-dark-color, #121212));" vertex="1" parent="1">
          <mxGeometry x="979" y="560" width="63" height="80" as="geometry" />
        </mxCell>
        <mxCell id="gEUW47SurgXgiEZyULdi-124" value="" style="edgeStyle=orthogonalEdgeStyle;rounded=0;orthogonalLoop=1;jettySize=auto;html=1;" edge="1" parent="1" source="gEUW47SurgXgiEZyULdi-100" target="gEUW47SurgXgiEZyULdi-108">
          <mxGeometry relative="1" as="geometry" />
        </mxCell>
        <mxCell id="gEUW47SurgXgiEZyULdi-100" value="tenant database" style="shape=cylinder3;whiteSpace=wrap;html=1;boundedLbl=1;backgroundOutline=1;size=15;fillColor=light-dark(#009900,var(--ge-dark-color, #121212));" vertex="1" parent="1">
          <mxGeometry x="977" y="880" width="63" height="80" as="geometry" />
        </mxCell>
        <mxCell id="gEUW47SurgXgiEZyULdi-126" value="" style="edgeStyle=orthogonalEdgeStyle;rounded=0;orthogonalLoop=1;jettySize=auto;html=1;" edge="1" parent="1" source="gEUW47SurgXgiEZyULdi-101" target="gEUW47SurgXgiEZyULdi-111">
          <mxGeometry relative="1" as="geometry" />
        </mxCell>
        <mxCell id="gEUW47SurgXgiEZyULdi-101" value="payment database" style="shape=cylinder3;whiteSpace=wrap;html=1;boundedLbl=1;backgroundOutline=1;size=15;fillColor=light-dark(#009900,var(--ge-dark-color, #121212));" vertex="1" parent="1">
          <mxGeometry x="980" y="1140" width="63" height="80" as="geometry" />
        </mxCell>
        <mxCell id="gEUW47SurgXgiEZyULdi-106" value="" style="edgeStyle=orthogonalEdgeStyle;rounded=0;orthogonalLoop=1;jettySize=auto;html=1;" edge="1" parent="1" source="gEUW47SurgXgiEZyULdi-104" target="gEUW47SurgXgiEZyULdi-99">
          <mxGeometry relative="1" as="geometry" />
        </mxCell>
        <mxCell id="gEUW47SurgXgiEZyULdi-135" value="" style="edgeStyle=orthogonalEdgeStyle;rounded=0;orthogonalLoop=1;jettySize=auto;html=1;fillColor=#FF8000;strokeColor=light-dark(#FF8000,#FFFFFF);" edge="1" parent="1" source="gEUW47SurgXgiEZyULdi-104" target="gEUW47SurgXgiEZyULdi-59">
          <mxGeometry relative="1" as="geometry">
            <Array as="points">
              <mxPoint x="1300" y="450" />
            </Array>
          </mxGeometry>
        </mxCell>
        <mxCell id="gEUW47SurgXgiEZyULdi-104" value="House service&lt;br&gt;/houses" style="rounded=0;whiteSpace=wrap;html=1;" vertex="1" parent="1">
          <mxGeometry x="920" y="410" width="179" height="80" as="geometry" />
        </mxCell>
        <mxCell id="gEUW47SurgXgiEZyULdi-123" value="" style="edgeStyle=orthogonalEdgeStyle;rounded=0;orthogonalLoop=1;jettySize=auto;html=1;" edge="1" parent="1" source="gEUW47SurgXgiEZyULdi-108" target="gEUW47SurgXgiEZyULdi-100">
          <mxGeometry relative="1" as="geometry" />
        </mxCell>
        <mxCell id="gEUW47SurgXgiEZyULdi-134" value="" style="edgeStyle=orthogonalEdgeStyle;rounded=0;orthogonalLoop=1;jettySize=auto;html=1;strokeColor=light-dark(#FF8000,#FFFFFF);" edge="1" parent="1" source="gEUW47SurgXgiEZyULdi-108" target="gEUW47SurgXgiEZyULdi-59">
          <mxGeometry relative="1" as="geometry">
            <Array as="points">
              <mxPoint x="1230" y="780" />
              <mxPoint x="1230" y="780" />
            </Array>
          </mxGeometry>
        </mxCell>
        <mxCell id="gEUW47SurgXgiEZyULdi-108" value="Tenant service&lt;br&gt;/tenants" style="rounded=0;whiteSpace=wrap;html=1;" vertex="1" parent="1">
          <mxGeometry x="920" y="740" width="177" height="80" as="geometry" />
        </mxCell>
        <mxCell id="gEUW47SurgXgiEZyULdi-125" value="" style="edgeStyle=orthogonalEdgeStyle;rounded=0;orthogonalLoop=1;jettySize=auto;html=1;" edge="1" parent="1" source="gEUW47SurgXgiEZyULdi-111" target="gEUW47SurgXgiEZyULdi-101">
          <mxGeometry relative="1" as="geometry" />
        </mxCell>
        <mxCell id="gEUW47SurgXgiEZyULdi-133" value="" style="edgeStyle=orthogonalEdgeStyle;rounded=0;orthogonalLoop=1;jettySize=auto;html=1;strokeColor=light-dark(#CC6600,#FFFFFF);" edge="1" parent="1" source="gEUW47SurgXgiEZyULdi-111" target="gEUW47SurgXgiEZyULdi-59">
          <mxGeometry relative="1" as="geometry">
            <Array as="points">
              <mxPoint x="1300" y="1050" />
            </Array>
          </mxGeometry>
        </mxCell>
        <mxCell id="gEUW47SurgXgiEZyULdi-151" value="Text" style="edgeLabel;html=1;align=center;verticalAlign=middle;resizable=0;points=[];" connectable="0" vertex="1" parent="gEUW47SurgXgiEZyULdi-133">
          <mxGeometry x="-0.0333" y="3" relative="1" as="geometry">
            <mxPoint as="offset" />
          </mxGeometry>
        </mxCell>
        <mxCell id="gEUW47SurgXgiEZyULdi-111" value="Payment service&lt;br&gt;/payments" style="rounded=0;whiteSpace=wrap;html=1;" vertex="1" parent="1">
          <mxGeometry x="923" y="1010" width="177" height="80" as="geometry" />
        </mxCell>
        <mxCell id="gEUW47SurgXgiEZyULdi-117" style="edgeStyle=orthogonalEdgeStyle;rounded=0;html=1;endArrow=block;endFill=1;jettySize=auto;orthogonalLoop=1;strokeWidth=2;startArrow=none;startFill=0;entryX=0;entryY=0.5;entryDx=0;entryDy=0;" edge="1" parent="1" target="gEUW47SurgXgiEZyULdi-108">
          <mxGeometry relative="1" as="geometry">
            <Array as="points">
              <mxPoint x="840" y="780" />
            </Array>
            <mxPoint x="840" y="570" as="sourcePoint" />
            <mxPoint x="910" y="780" as="targetPoint" />
          </mxGeometry>
        </mxCell>
        <mxCell id="gEUW47SurgXgiEZyULdi-141" value="/tenants" style="edgeLabel;html=1;align=center;verticalAlign=middle;resizable=0;points=[];" connectable="0" vertex="1" parent="gEUW47SurgXgiEZyULdi-117">
          <mxGeometry x="0.669" relative="1" as="geometry">
            <mxPoint as="offset" />
          </mxGeometry>
        </mxCell>
        <mxCell id="gEUW47SurgXgiEZyULdi-121" style="edgeStyle=orthogonalEdgeStyle;rounded=0;orthogonalLoop=1;jettySize=auto;html=1;exitX=1;exitY=0.5;exitDx=0;exitDy=0;exitPerimeter=0;" edge="1" parent="1">
          <mxGeometry relative="1" as="geometry">
            <mxPoint x="762" y="570" as="sourcePoint" />
            <mxPoint x="920" y="170" as="targetPoint" />
            <Array as="points">
              <mxPoint x="839" y="570" />
              <mxPoint x="839" y="170" />
              <mxPoint x="915" y="170" />
            </Array>
          </mxGeometry>
        </mxCell>
        <mxCell id="gEUW47SurgXgiEZyULdi-144" value="/users" style="edgeLabel;html=1;align=center;verticalAlign=middle;resizable=0;points=[];" connectable="0" vertex="1" parent="gEUW47SurgXgiEZyULdi-121">
          <mxGeometry x="0.853" y="-1" relative="1" as="geometry">
            <mxPoint as="offset" />
          </mxGeometry>
        </mxCell>
        <mxCell id="gEUW47SurgXgiEZyULdi-122" style="edgeStyle=orthogonalEdgeStyle;rounded=0;orthogonalLoop=1;jettySize=auto;html=1;exitX=1;exitY=0.5;exitDx=0;exitDy=0;exitPerimeter=0;entryX=0;entryY=0.5;entryDx=0;entryDy=0;" edge="1" parent="1" target="gEUW47SurgXgiEZyULdi-104">
          <mxGeometry relative="1" as="geometry">
            <mxPoint x="760" y="570" as="sourcePoint" />
            <mxPoint x="898" y="450" as="targetPoint" />
            <Array as="points">
              <mxPoint x="837" y="570" />
              <mxPoint x="837" y="450" />
            </Array>
          </mxGeometry>
        </mxCell>
        <mxCell id="gEUW47SurgXgiEZyULdi-143" value="/houses" style="edgeLabel;html=1;align=center;verticalAlign=middle;resizable=0;points=[];" connectable="0" vertex="1" parent="gEUW47SurgXgiEZyULdi-122">
          <mxGeometry x="0.6571" y="-1" relative="1" as="geometry">
            <mxPoint as="offset" />
          </mxGeometry>
        </mxCell>
        <mxCell id="gEUW47SurgXgiEZyULdi-130" value="" style="edgeStyle=orthogonalEdgeStyle;rounded=0;orthogonalLoop=1;jettySize=auto;html=1;" edge="1" parent="1" source="gEUW47SurgXgiEZyULdi-127" target="gEUW47SurgXgiEZyULdi-129">
          <mxGeometry relative="1" as="geometry" />
        </mxCell>
        <mxCell id="gEUW47SurgXgiEZyULdi-127" value="" style="shape=waypoint;sketch=0;size=6;pointerEvents=1;points=[];fillColor=#a0522d;resizable=0;rotatable=0;perimeter=centerPerimeter;snapToPoint=1;fontSize=8;verticalAlign=top;strokeColor=#6D1F00;fontColor=#ffffff;strokeWidth=1;dashed=0;labelBackgroundColor=#ffffff;" vertex="1" parent="1">
          <mxGeometry x="1200" y="1170" width="20" height="20" as="geometry" />
        </mxCell>
        <mxCell id="gEUW47SurgXgiEZyULdi-129" value="" style="shape=waypoint;sketch=0;size=6;pointerEvents=1;points=[];fillColor=#a0522d;resizable=0;rotatable=0;perimeter=centerPerimeter;snapToPoint=1;fontSize=8;verticalAlign=top;strokeColor=#6D1F00;fontColor=#ffffff;strokeWidth=1;dashed=0;labelBackgroundColor=#ffffff;" vertex="1" parent="1">
          <mxGeometry x="1040" y="1170" width="20" height="20" as="geometry" />
        </mxCell>
        <mxCell id="gEUW47SurgXgiEZyULdi-138" value="" style="shape=waypoint;sketch=0;size=6;pointerEvents=1;points=[];fillColor=#a0522d;resizable=0;rotatable=0;perimeter=centerPerimeter;snapToPoint=1;fontSize=8;verticalAlign=top;strokeColor=#6D1F00;fontColor=#ffffff;strokeWidth=1;dashed=0;labelBackgroundColor=#ffffff;" vertex="1" parent="1">
          <mxGeometry x="1170" y="770" width="20" height="20" as="geometry" />
        </mxCell>
        <mxCell id="gEUW47SurgXgiEZyULdi-140" value="" style="edgeStyle=orthogonalEdgeStyle;rounded=0;orthogonalLoop=1;jettySize=auto;html=1;entryX=1.048;entryY=0.588;entryDx=0;entryDy=0;entryPerimeter=0;" edge="1" parent="1">
          <mxGeometry relative="1" as="geometry">
            <mxPoint x="1290" y="943" as="sourcePoint" />
            <mxPoint x="1053.024" y="940.04" as="targetPoint" />
            <Array as="points">
              <mxPoint x="1300" y="943" />
              <mxPoint x="1300" y="940" />
            </Array>
          </mxGeometry>
        </mxCell>
        <mxCell id="gEUW47SurgXgiEZyULdi-145" value="API-Gateway service" style="text;html=1;align=center;verticalAlign=middle;resizable=0;points=[];autosize=1;strokeColor=none;fillColor=none;" vertex="1" parent="1">
          <mxGeometry x="620" y="585" width="140" height="30" as="geometry" />
        </mxCell>
        <mxCell id="gEUW47SurgXgiEZyULdi-152" value="&lt;font style=&quot;font-size: 24px;&quot;&gt;RabbitMQ message Broker&lt;/font&gt;" style="text;html=1;align=center;verticalAlign=middle;resizable=0;points=[];autosize=1;strokeColor=none;fillColor=none;rotation=90;" vertex="1" parent="1">
          <mxGeometry x="1170" y="730" width="310" height="40" as="geometry" />
        </mxCell>
      </root>
    </mxGraphModel>
  </diagram>
</mxfile>
